PathFileType	4	(X/Y/Z)	C:/Users/beibeiliu/ov580/test_trc/User2\sequence.22_training_dense_left.trc
DataRate	CameraRate	NumFrames	NumMarkers	Units	OrigDataRate	OrigDataStartFrame	OrigNumFrames
120	120	20	19	mm	120	228	364
Frame#	Time	ThumbCMC			ThumbMCP			ThumbIP			ThumbTip			IndexMCP			IndexPIP			IndexTip			MiddleMCP			MiddlePIP			MiddleTip			RingMCP			RingPIP			RingTip			PinkyMCP			PinkyPIP			PinkyTip			BackHand1			BackHand2			BackHand3	
		X0	Y0	Z0	X1	Y1	Z1	X2	Y2	Z2	X3	Y3	Z3	X4	Y4	Z4	X5	Y5	Z5	X6	Y6	Z6	X7	Y7	Z7	X8	Y8	Z8	X9	Y9	Z9	X10	Y10	Z10	X11	Y11	Z11	X12	Y12	Z12	X13	Y13	Z13	X14	Y14	Z14	X15	Y15	Z15	X16	Y16	Z16	X17	Y17	Z17	X18	Y18	Z18	
227	1.89167	-172.557	20.6095	85.5416	-170.422	27.4133	53.9309	-171.895	30.3861	19.2973	-172.816	29.7335	-7.49722	-205.528	0.269226	12.5071	-186.644	-1.06122	-15.2484	-154.165	5.23212	4.45522	-203.436	-18.8226	4.44482	-170.924	-18.1029	-15.1174	-149.774	-8.87134	17.7085	-200.738	-43.4968	7.10716	-175.798	-37.5957	-11.989	-150.317	-27.4035	14.1645	-197.953	-56.9673	36.0839	-209.333	-63.1808	10.5121	-216.333	-64.3176	-16.3835	-204.696	-38.589	70.8776	-197.011	-38.9173	105.036	-206.404	-2.1267	85.6493	
228	1.9	-164.915	22.8346	91.1618	-159.619	30.903	61.6294	-161.482	36.3786	26.5976	-162.171	42.6495	-1.22667	-202.131	11.3128	14.3454	-184.43	8.40066	-10.5159	-149.835	9.98713	6.93726	-204.523	-6.38209	7.11583	-174.572	-11.4112	-12.5944	-150.747	-10.2367	17.3696	-206.153	-31.3741	13.8961	-183.231	-27.0043	-10.792	-155.914	-23.8018	8.88201	-206.413	-48.4983	36.1796	-221.305	-46.9103	6.29951	-223.73	-39.9431	-18.5864	-206.77	-32.3668	74.0586	-201.56	-31.8166	107.1	-200.373	4.7388	92.3015	
229	1.90833	-157.958	21.3385	94.718	-149.985	32.8665	66.6866	-151.781	41.4362	32.6263	-153.45	49.1416	3.80798	-196.971	29.4902	21.8338	-180.666	22.2929	-6.58447	-150.035	12.5447	7.62021	-203.775	9.95923	14.7257	-174.653	1.46599	-10.8994	-152.28	-7.77964	18.1965	-211.229	-13.8294	13.5604	-188.702	-17.9706	-9.10213	-159.051	-21.5875	14.4416	-215.659	-32.4641	34.0341	-225.247	-29.1833	12.5286	-233.279	-22.7224	-15.7528	-207.171	-20.2588	76.5531	-204.134	-27.8291	109.07	-197.832	8.90548	92.6454	
230	1.91667	-150.137	21.2128	98.5064	-144.918	32.8541	67.2313	-142.364	44.8222	36.3021	-142.026	53.0478	10.3942	-189.662	39.5872	28.1088	-174.467	30.7609	-2.5559	-145.798	13.4037	11.8558	-202.809	19.9024	17.1843	-175.812	12.3794	-8.73507	-151.045	-0.767907	22.9844	-209.06	5.28811	17.4332	-193.942	-4.37885	-8.01445	-162.64	-11.3685	11.4002	-218.331	-19.647	37.3575	-229.554	-7.89511	10.363	-234.977	0.0346969	-14.6081	-210.67	-8.76808	76.5412	-203.384	-15.0408	107.75	-192.445	16.4028	97.892	
231	1.925	-146.678	18.2454	98.9861	-135.132	33.7712	70.9245	-133.697	45.483	40.2447	-128.441	54.5623	17.3204	-180.026	49.5173	30.8631	-168.211	41.1421	2.31204	-143.161	12.9863	16.6098	-193.76	36.0489	19.8331	-171.072	20.0849	-4.00158	-150.692	1.04296	24.9391	-207.549	17.4711	19.5237	-192.382	6.436	-4.65052	-165.035	-7.79802	15.4405	-216.006	-4.99311	40.7626	-227.636	7.83363	15.8087	-234.512	18.16	-5.13532	-209.044	1.49543	80.4119	-205.559	-9.91562	110.575	-186.318	21.0994	101.423	
232	1.93333	-141.657	14.2241	101.887	-133.351	25.1196	73.5181	-124.812	41.9273	45.3793	-120.15	49.8026	23.4204	-173.105	53.7884	35.3385	-160.89	46.9911	6.67735	-140.557	19.3277	15.3051	-190.453	41.6451	23.2107	-168.496	26.834	-1.54543	-151.844	2.31052	21.8839	-206.088	25.5663	21.192	-187.489	18.1003	-0.437806	-165.373	-4.59082	19.5086	-217.15	9.07675	41.6475	-227.452	21	18.1542	-231.581	37.1313	-3.56979	-205.165	6.43568	85.601	-205.049	-6.9588	112.839	-180.527	21.6871	108.18	
233	1.94167	-139.248	6.35852	106.312	-128.629	19.3675	77.9105	-117.564	36.6097	49.6188	-116.193	50.6497	23.0894	-165.173	55.0236	41.9888	-156.493	48.0227	9.28107	-140.296	16.2598	17.8026	-183.436	46.0566	30.5854	-169.269	32.5256	1.17072	-152.147	2.09418	27.4171	-199.045	32.5947	29.9053	-187.605	21.1589	1.10445	-164.272	-2.57448	23.8965	-215.226	14.9514	44.5524	-222.162	33.2768	20.9293	-227.323	45.2219	2.77075	-208.311	10.0839	85.5061	-205.841	-3.78296	114.907	-178.298	24.1408	106.23	
234	1.95	-137.707	5.20335	103.385	-124.888	13.3898	77.6274	-115.403	32.8152	48.5361	-113.341	40.8702	25.4176	-160.317	55.3374	40.3135	-151.815	44.423	9.88091	-136.828	14.1735	18.6545	-179.126	49.0815	28.2101	-163.927	29.4736	2.07756	-152.549	1.67078	25.3923	-197.084	36.5029	24.5473	-183.592	23.9131	2.82059	-167.68	-4.26829	23.541	-212.564	19.1587	45.3512	-221.126	36.6319	24.3713	-223.964	54.5579	6.64514	-203.731	14.8648	85.8506	-202.873	0.616888	115.647	-174.56	22.8038	108.755	
235	1.95833	-136.887	-2.60719	104.494	-123.095	9.7411	75.1525	-111.069	24.2664	46.7424	-110.818	35.1441	21.9832	-159.568	50.0767	38.2503	-150.656	42.5472	9.13591	-136.506	6.7756	19.266	-179.008	45.3996	25.0922	-161.815	26.0843	0.733169	-154.31	-3.26097	24.2488	-197.056	33.9287	23.7783	-182.252	19.752	1.27149	-169.487	-7.25866	19.3665	-216.246	19.755	43.7392	-218.678	38.4449	22.4223	-220.178	53.1158	7.46369	-203.677	11.9271	85.1341	-205.891	-3.43268	115.064	-169.954	23.3688	106.785	
236	1.96667	-134.415	-5.70131	101.026	-121.171	2.34985	71.6951	-111.32	16.541	40.8455	-107.524	24.4325	17.2659	-154.667	44.3043	31.3144	-150.745	30.5959	4.942	-141.356	-5.03239	18.8038	-176.83	38.2968	26.5871	-165.983	15.687	-2.33404	-156.606	-10.9931	21.4019	-196.029	28.308	24.8884	-185.324	9.50393	-2.0139	-172.45	-15.7339	19.5137	-217.727	14.7047	42.751	-218.386	35.0895	20.0205	-217.901	50.8528	2.59593	-201.101	11.186	85.7625	-206.14	-1.16225	113.461	-171.226	18.1794	103.748	
237	1.975	-141.585	-9.88233	94.7434	-125.695	-4.5727	64.9662	-118.095	1.69166	35.8355	-109.241	7.56496	10.4685	-157.259	31.2122	23.2705	-150.783	16.0667	-0.739752	-146.254	-16.7483	15.4726	-177.394	26.7665	17.3439	-166.976	2.16744	-6.5679	-161.015	-25.5857	22.925	-199.685	15.448	19.2289	-188.855	-1.91004	-5.17049	-173.047	-27.1705	16.7386	-214.694	7.45605	38.3544	-220.802	18.7658	18.8487	-222.959	36.1576	-4.72718	-205.473	3.94637	80.7268	-204.663	-1.98314	110.619	-174.307	13.6085	100.224	
238	1.98333	-137.734	-18.6613	92.3855	-125.952	-21.675	63.6661	-115.021	-17.0262	28.7547	-111.897	-16.5751	5.21343	-158.217	10.6241	16.6244	-153.745	-13.4772	-7.28288	-144.498	-36.6933	16.72	-180.757	3.90533	8.57846	-174.541	-26.4528	-9.78146	-162.152	-44.7034	24.1439	-199.855	-6.0489	10.7838	-191.724	-27.0388	-7.79685	-177.383	-49.3878	18.5577	-219.899	-10.739	33.0091	-221.164	-1.12757	9.54547	-226.151	10.3087	-9.81263	-203.017	-5.6121	77.3834	-207.269	-7.47776	105.641	-170.689	3.46194	94.8298	
239	1.99167	-136.406	-24.0382	91.6399	-126.977	-29.7936	61.1179	-116.156	-30.1567	27.5273	-108.676	-32.378	1.6657	-161.264	-5.33687	11.8774	-153.833	-28.1933	-9.74571	-147.227	-51.6824	19.0848	-181.351	-11.0586	5.0796	-176.413	-43.0223	-9.57908	-164.607	-57.4043	27.2382	-202.042	-20.1327	10.2639	-191.15	-46.1944	-6.35268	-180.633	-63.0746	20.7113	-216.364	-22.7449	34.918	-222.052	-13.0834	4.78768	-223.885	-5.24918	-12.2514	-204.657	-11.0518	70.9028	-205.657	-9.98169	106.514	-170.603	1.18878	88.0789	
240	2	-135.43	-26.2929	89.8275	-121.088	-33.5881	65.2922	-110.602	-35.6711	30.2793	-109.184	-40.6137	5.76138	-157.532	-12.9818	10.9261	-153.374	-40.5157	-7.51654	-144.2	-58.9817	17.6129	-179.391	-21.0196	1.41798	-172.436	-49.8656	-9.71763	-159.949	-64.1241	29.8636	-194.573	-26.4107	7.8351	-187.664	-53.2719	-5.09449	-176.676	-68.9152	27.7159	-217.946	-24.8895	29.3226	-219.716	-20.7464	4.23718	-219.296	-12.9806	-18.3521	-203.163	-12.3232	71.094	-200.491	-11.2965	102.029	-166.958	-0.124286	85.9432	
241	2.00833	-136.166	-27.2513	97.1434	-118.048	-33.5736	67.7842	-106.778	-34.8846	31.7463	-103.36	-42.2769	11.9371	-149.461	-15.3035	12.689	-145.253	-40.5691	-6.21502	-140.419	-61.931	22.0148	-170.635	-21.1332	5.05471	-162.125	-54.3223	-7.26487	-155.4	-67.6701	30.5945	-190.838	-29.2197	8.05957	-182.44	-60.7908	-2.68717	-169.945	-69.1922	31.0906	-213.314	-28.1256	29.5806	-213.937	-23.5867	0.804876	-215.298	-20.3415	-21.9643	-199.645	-12.709	71.1599	-201.317	-11.8245	102.871	-167.193	-2.50191	83.2973	
242	2.01667	-130.418	-24.4023	99.2122	-117.609	-30.964	70.472	-101.405	-34.251	38.6315	-93.7414	-39.5764	13.3813	-140.097	-17.3565	12.3585	-136.625	-45.3933	-1.31775	-132.947	-63.703	29.616	-163.409	-24.2681	5.27133	-151.065	-57.2542	-2.7205	-149.669	-68.8047	33.8006	-186.508	-31.3283	8.95192	-170.316	-58.5583	-0.8346	-164.683	-70.9583	34.432	-204.63	-28.2418	29.1277	-202.69	-25.1439	1.90336	-204.711	-23.8874	-25.3435	-191.193	-12.6196	70.3128	-196.5	-10.6758	103.308	-160.945	0.24594	85.5992	
243	2.025	-128.584	-20.5929	103.041	-109.474	-26.7522	76.7863	-99.0175	-31.3711	43.3157	-89.5458	-37.1573	20.5934	-134.992	-16.3886	16.4185	-128.567	-43.6528	2.30434	-122.645	-62.4878	34.6762	-152.994	-23.8925	7.65265	-144.05	-57.0375	-0.524452	-143.06	-66.7958	39.3495	-176.512	-31.8038	12.7872	-161.179	-56.1885	-0.864905	-156.111	-70.0964	37.1793	-196.127	-29.8589	27.2443	-195.745	-28.2662	1.21515	-191.917	-28.2853	-23.6178	-186.153	-12.8357	67.0486	-192.577	-7.59816	101.01	-162.196	1.07628	88.2525	
244	2.03333	-126.631	-16.9556	104.749	-103.962	-21.0935	82.6774	-92.6987	-26.3097	50.889	-82.2878	-31.6803	23.8727	-127.106	-12.7123	22.5611	-119.183	-39.4333	5.38102	-111.757	-57.5184	37.8804	-144.873	-21.6247	10.2138	-136.059	-54.8724	3.10084	-134.156	-64.8262	42.7267	-164.987	-30.783	12.8952	-149.483	-59.0965	4.85655	-148.069	-70.0901	39.6079	-189.231	-31.8411	29.8376	-187.905	-31.1598	3.64995	-182.107	-29.7861	-22.7739	-186.453	-13.3766	70.6208	-192.018	-6.2519	98.8896	-154.323	4.08038	92.8854	
245	2.04167	-124.138	-9.58197	111.091	-100.322	-13.3045	81.9682	-85.5222	-18.4394	55.8097	-76.1428	-25.4921	34.2025	-121.743	-10.0084	23.3419	-109.648	-36.055	11.192	-104.117	-52.4576	43.5412	-138.205	-18.4657	16.0141	-125.647	-51.6097	7.25484	-126.701	-61.1226	47.4772	-156.042	-29.3454	13.7649	-141.539	-58.0788	7.69906	-138.637	-67.7881	40.3112	-184.115	-33.455	30.5998	-176.756	-31.4913	4.58268	-171.914	-30.4495	-21.521	-181.013	-11.0565	67.7803	-189.885	-5.54832	99.8124	-154.055	8.80582	92.5495	
246	2.05	-121.314	-2.22147	110.792	-100.439	-6.25413	84.0905	-84.3724	-10.8013	60.5749	-70.9348	-16.1121	38.9203	-117.512	-6.4688	24.207	-101.872	-32.4769	14.7838	-102.248	-46.956	47.498	-132.828	-16.8526	16.1845	-114.661	-49.7714	13.6346	-114.2	-55.6651	50.671	-154.972	-30.8446	15.6635	-129.87	-54.2679	11.3152	-130.524	-63.3282	46.6371	-175.182	-32.3315	28.9483	-168.755	-32.3499	1.3943	-163.446	-33.913	-17.9418	-176.502	-8.69305	67.578	-189.52	-5.34736	101.665	-154.253	11.4276	88.8604	
